/* XPM */
static char *xep16[] = {
/* columns rows colors chars-per-pixel */
"16 16 114 2 ",
"   c #1A1261",
".  c #191A6B",
"X  c #172175",
"o  c #172276",
"O  c #182174",
"+  c #15297E",
"@  c #1B2E81",
"#  c #1E3183",
"$  c #133088",
"%  c #123892",
"&  c #163B94",
"*  c #103E9B",
"=  c #103F9B",
"-  c #1C4197",
";  c #14429D",
":  c #1E4298",
">  c #294C9D",
",  c #324C98",
"<  c #3C549D",
"1  c #0E47A5",
"2  c #0C4EAF",
"3  c #0D4EAF",
"4  c #0A55B8",
"5  c #0B55B8",
"6  c #1352B1",
"7  c #1453B1",
"8  c #175EBC",
"9  c #2953A6",
"0  c #3B70BE",
"q  c #5274B6",
"w  c #6B78AE",
"e  c #607FBC",
"r  c #727EB1",
"t  c #095DC2",
"y  c #0A5DC2",
"u  c #0F61C3",
"i  c #0864CC",
"p  c #1665C5",
"a  c #1766C5",
"s  c #066CD4",
"d  c #066CD5",
"f  c #066DD5",
"g  c #0472DF",
"h  c #0473DF",
"j  c #0474DF",
"k  c #1172D7",
"l  c #1675D8",
"z  c #226EC8",
"x  c #2B73CA",
"c  c #2D75CB",
"v  c #2D7BD4",
"b  c #037BE9",
"n  c #047BE8",
"m  c #047BE9",
"M  c #4376C1",
"N  c #3983D6",
"B  c #0182F2",
"V  c #0183F2",
"C  c #0282F2",
"Z  c #0282F3",
"A  c #5588CD",
"S  c #718DC3",
"D  c #7197D0",
"F  c #739ED6",
"G  c #69A6E6",
"H  c #76AEE8",
"J  c #829BCB",
"K  c #8BA6D4",
"L  c #8EA8D5",
"P  c #8CAFDE",
"I  c #93ADD7",
"U  c #95AED7",
"Y  c #A2AACC",
"T  c #A5ADCD",
"R  c #AFB9D7",
"E  c #A4B6D9",
"W  c #A6BBDE",
"Q  c #A8BFE2",
"!  c #B5C1DD",
"~  c #BCC5DD",
"^  c #ADC3E4",
"/  c #ADC6E7",
"(  c #A2C8EF",
")  c #AFCAEB",
"_  c #A9C9ED",
"`  c #ACCBEE",
"'  c #B5C7E3",
"]  c #BCCCE6",
"[  c #BDCCE6",
"{  c #B1C8E8",
"}  c #A9CCF1",
"|  c #C7D0E5",
" . c #C2D0E8",
".. c #CCDAEE",
"X. c #D6DDEC",
"o. c #D9DEEC",
"O. c #D6E4F5",
"+. c #DCE6F5",
"@. c #DCE9F8",
"#. c #E2E6F1",
"$. c #E2E7F2",
"%. c #E6EEF8",
"&. c #E7EFF9",
"*. c #E8EFF8",
"=. c #EDF0F6",
"-. c #E7F0FA",
";. c #E8F0FA",
":. c #ECF2FA",
">. c #ECF3FB",
",. c #F3F4F9",
"<. c #F4F7FB",
"1. c #F5F7FB",
"2. c #F7F8FB",
"3. c None",
/* pixels */
"3.3.3.3.3.Z Z Z Z Z Z 3.3.3.3.3.",
"3.3.3.n b b b b b b b b n 3.3.3.",
"3.3.j h h h h h j h h h h h 3.3.",
"3.d d d d l H } ( G k s d d d 3.",
"3.i i i N ;.-._ ` :.@.v i i i 3.",
"t t t a -.{ p c z x :.O.u t t 3.",
"5 5 5 F ;.8 P +.*.{ / A 5 5 5 5 ",
"2 2 2 Q ^ 2 1.6 0 ..7 M D 2 2 2 ",
"1 1 1 W ] I ] L ' K 1  .I 1 1 1 ",
"* * ; S 2.E q J S ; 9 1.e * * * ",
"3.% % - $.! : % % > | X.& % % 3.",
"3.$ $ $ < #.=.R ~ 1.o., $ $ $ 3.",
"3.3.+ + + # r T Y w @ + + + 3.3.",
"3.3.X X X X X X X X X X O O 3.3.",
"3.3.3.3.. . . . . . . . 3.3.3.3.",
"3.3.3.3.3.3.        3.3.3.3.3.3."
};
