/* XPM */
static char *xep32[] = {
/* columns rows colors chars-per-pixel */
"32 32 228 2 ",
"   c #1C0F5F",
".  c #1B105F",
"X  c #1B1160",
"o  c #1A1464",
"O  c #171C6C",
"+  c #191868",
"@  c #1A1868",
"#  c #181B6E",
"$  c #181C6D",
"%  c #171F72",
"&  c #162377",
"*  c #172378",
"=  c #16267B",
"-  c #15277C",
";  c #16277C",
":  c #18297D",
">  c #1B2C7F",
",  c #152B81",
"<  c #142D85",
"1  c #142E85",
"2  c #163086",
"3  c #13328A",
"4  c #16348B",
"5  c #12368F",
"6  c #113994",
"7  c #113D99",
"8  c #0F419D",
"9  c #10419E",
"0  c #10429F",
"q  c #1C469E",
"w  c #2D418E",
"e  c #23489C",
"r  c #24499C",
"t  c #3B4991",
"y  c #3E4C93",
"u  c #3B4D95",
"i  c #0F45A2",
"p  c #0F45A3",
"a  c #0D48A7",
"s  c #0E48A7",
"d  c #0F49A7",
"f  c #0D4CAC",
"g  c #0D4CAD",
"h  c #0F4DAD",
"j  c #1247A3",
"k  c #1645A0",
"l  c #0C4FB1",
"z  c #0C50B1",
"x  c #0D51B1",
"c  c #0B54B6",
"v  c #0C54B6",
"b  c #0B57BB",
"n  c #0A5BBF",
"m  c #0F5ABC",
"M  c #1E5DB7",
"N  c #1259B8",
"B  c #185DBA",
"V  c #254DA1",
"C  c #224FA5",
"Z  c #2153A9",
"A  c #2459AF",
"S  c #2559AF",
"D  c #3053A2",
"F  c #3A5BA6",
"G  c #2860B5",
"H  c #2260B8",
"J  c #2663B9",
"K  c #3969B7",
"L  c #3A6DBB",
"P  c #3E6DB9",
"I  c #3C6FBC",
"U  c #53609E",
"Y  c #415EA5",
"T  c #5864A1",
"R  c #5067A8",
"E  c #5269A9",
"W  c #526CAD",
"Q  c #456FB7",
"!  c #5675B7",
"~  c #5B79B9",
"^  c #095FC4",
"/  c #0766CE",
"(  c #0863C9",
")  c #0964C9",
"_  c #0E67CA",
"`  c #0967CE",
"'  c #0E6ACF",
"]  c #1260C1",
"[  c #1A66C3",
"{  c #066AD3",
"}  c #066ED7",
"|  c #066ED8",
" . c #066ED9",
".. c #0571DB",
"X. c #0571DC",
"o. c #0572DC",
"O. c #1577DA",
"+. c #1A79DB",
"@. c #216AC5",
"#. c #296BC3",
"$. c #2471CA",
"%. c #357CCF",
"&. c #3F7ECD",
"*. c #307CD2",
"=. c #327DD2",
"-. c #0475E1",
";. c #0379E6",
":. c #0379E7",
">. c #027DEB",
",. c #4176C2",
"<. c #407FCD",
"1. c #6B82B9",
"2. c #7483B7",
"3. c #7083B8",
"4. c #7789BC",
"5. c #3787DC",
"6. c #0180F0",
"7. c #0280F0",
"8. c #0280F1",
"9. c #0084F5",
"0. c #0085F5",
"q. c #5981C2",
"w. c #5B82C3",
"e. c #5F86C5",
"r. c #5585C9",
"t. c #5988CA",
"y. c #5F88C8",
"u. c #4B87D0",
"i. c #428EDE",
"p. c #588CD0",
"a. c #4F90D8",
"s. c #5C92D4",
"d. c #5795DA",
"f. c #6E8CC4",
"g. c #6590CD",
"h. c #7FA0D3",
"j. c #75A2DB",
"k. c #7EA4D8",
"l. c #7FA5D9",
"z. c #7FA7DB",
"x. c #4895E2",
"c. c #65A5E7",
"v. c #66A6E7",
"b. c #7CAAE0",
"n. c #8F9CC5",
"m. c #809ACB",
"M. c #8E9FC9",
"N. c #8AA0CD",
"B. c #92A0C9",
"V. c #9BA4C9",
"C. c #85A0D0",
"Z. c #86A3D3",
"A. c #8AA9D7",
"S. c #8FA8D4",
"D. c #8FB1DE",
"F. c #9BB2D8",
"G. c #AAB2D1",
"H. c #A1B8DD",
"J. c #AABBDC",
"K. c #ADBCDC",
"L. c #B1BBD8",
"P. c #88B6E8",
"I. c #97B6E0",
"U. c #9CBEE7",
"Y. c #99BFE9",
"T. c #A1BDE3",
"R. c #BBC4DD",
"E. c #9FC4EC",
"W. c #A3C0E5",
"Q. c #A5C6EB",
"!. c #A8C8EC",
"~. c #B6C6E3",
"^. c #B9C7E2",
"/. c #BDCDE7",
"(. c #B2CAEA",
"). c #B8CDEA",
"_. c #BBD0EC",
"`. c #B0D0F1",
"'. c #BBD6F3",
"]. c #BDD5F1",
"[. c #C4CCE2",
"{. c #C1D2EB",
"}. c #C9D5EA",
"|. c #CAD8ED",
" X c #D0DAEC",
".X c #D0DBED",
"XX c #D8DEED",
"oX c #D9DFEE",
"OX c #C7D9F0",
"+X c #C7DBF2",
"@X c #C8DAF1",
"#X c #D9E0EF",
"$X c #DDE4F1",
"%X c #DFE5F1",
"&X c #DEE5F2",
"*X c #D9E5F5",
"=X c #DAE7F6",
"-X c #DEE8F6",
";X c #E0EAF6",
":X c #E3EBF6",
">X c #E8EAF3",
",X c #EAEDF5",
"<X c #E9EEF7",
"1X c #EBEFF6",
"2X c #E8EFF8",
"3X c #EBF1F9",
"4X c #EDF1F8",
"5X c #EEF3FA",
"6X c #F0F2F7",
"7X c #F0F3F8",
"8X c #F0F4FA",
"9X c #F2F5FA",
"0X c #F5F6FA",
"qX c #F4F6FB",
"wX c #F5F7FB",
"eX c #F5F8FC",
"rX c #F6F9FD",
"tX c #F7FAFD",
"yX c #F8FAFD",
"uX c #F9FBFE",
"iX c #FBFCFD",
"pX c #FBFDFE",
"aX c #FCFDFE",
"sX c #FDFDFE",
"dX c #FDFEFF",
"fX c #FEFEFF",
"gX c white",
"hX c None",
/* pixels */
"hXhXhXhXhXhXhXhXhXhXhXhX9.9.9.9.9.9.9.9.hXhXhXhXhXhXhXhXhXhXhXhX",
"hXhXhXhXhXhXhXhXhX>.8.8.8.8.8.8.6.6.6.6.8.8.8.hXhXhXhXhXhXhXhXhX",
"hXhXhXhXhXhXhX>.>.>.>.>.>.>.>.>.>.>.>.>.>.>.>.>.hXhXhXhXhXhXhXhX",
"hXhXhXhXhXhX;.;.;.;.;.;.;.;.;.;.;.;.;.;.;.;.;.;.;.;.hXhXhXhXhXhX",
"hXhXhXhXhX-.-.-.-.-.-.-.-.-.-.-.-.-.-.-.-.-.-.-.-.-.-.hXhXhXhXhX",
"hXhXhXhXo.o.o.o.o.o.o.o.o.o.....o...o.o.o.o. .o.o.o.o...hXhXhXhX",
"hXhXhX . .}  . . .}  . . .+.x.c.c.x.O. . .}  .}  .}  . .} hXhXhX",
"hXhXhX{ { { { { { { { i.].yXgXgXgXgXyX`.5.{ { { { { { { { hXhXhX",
"hXhX/ / / / / / / ' E.gXgXgXgXgXgXgXgXgXgXP.` / / / / / / / hXhX",
"hXhX( ( ( ( ( ( _ ].gXgXeXY.a.*.=.d.!.pXgXgXQ.( ( ( ( ( ( ( hXhX",
"hX^ ^ ^ ^ ^ ^ ^ U.gXgX+X$.^ ^ ^ ^ ^ ^ %.*XgXgXb.^ ^ ^ ^ ^ ^ ^ hX",
"hXn n n n n n &.gXgX@X] n ^ &.j.s.[ n u.*XtXgXtX@.n n n n n n hX",
"hXb b b b b b (.gXtX#.b m W.gXgXgX3X).-Xz.+X=Xp.b b b b b b b hX",
"c c c c c c B yXgXT.c c k.gX5XZ.).tXD.I.5XZ.N b c c c c c c c v ",
"l z z z z z ,.gXgXt.l z :XgXH z z r.3X{.J z z z g.M z z z z z z ",
"f f f f f f y.gXgXL f f yXgXf f f h.gXA.f f G |.gXI f f f f f f ",
"a a a p a p w.gXgXP A H.<XZ.w.p A /.gXe.s s e.gXgXK s s s s s s ",
"p i p i i i Q gXgX~.4XF.S.0XgX X9XgX}.j i i C.gXgXZ i i i i i i ",
"i 7 7 i 8 j k eXgX%Xm.%X^.f.;XgXgXJ.C 8 9 9  XgX#X9 9 9 9 9 9 8 ",
"hX7 7 7 7 7 7 K.gXgX%X! 7 7 7 V q 7 7 7 7 ~ gXgXN.7 7 7 7 7 7 hX",
"hX6 6 6 6 6 6 F pXgXXXe 6 6 6 6 6 6 6 6 D <XgX6Xe 6 6 6 6 6 6 hX",
"hX5 5 5 5 5 5 5 M.gXgXXXF 5 5 5 5 5 5 W <XgXgX1.5 5 5 5 5 5 5 hX",
"hXhX3 3 3 3 3 3 4 L.gXgXgXR.3.R E 4.[.gXgXgXB.3 3 3 3 3 3 3 hXhX",
"hXhX1 1 1 1 1 1 1 1 n.pXgXgXgXgXgXgXgXgX0X2.< < 1 1 1 1 1 1 hXhX",
"hXhXhX, , , , , , , , u G.6XgXgXgXgX>XV.w , , , , , , , , hXhXhX",
"hXhXhX; ; ; ; ; ; ; ; ; ; > y T U t : ; ; ; ; ; ; ; ; ; ; hXhXhX",
"hXhXhXhX* * * * & & & & & & & & & & & & & & & & & & & & hXhXhXhX",
"hXhXhXhXhX% % % % % % % % % % % % % % % % % % % % % % hXhXhXhXhX",
"hXhXhXhXhXhX# $ $ $ $ $ $ $ $ $ $ $ $ $ $ $ $ $ $ O hXhXhXhXhXhX",
"hXhXhXhXhXhXhXhX+ + + + + + + + + + + + + + + + hXhXhXhXhXhXhXhX",
"hXhXhXhXhXhXhXhXhXhXo o o o o o o o o o o o hXhXhXhXhXhXhXhXhXhX",
"hXhXhXhXhXhXhXhXhXhXhXhXhXX X . . X   hXhXhXhXhXhXhXhXhXhXhXhXhX"
};
