/* XPM */
static char *xep64[] = {
/* columns rows colors chars-per-pixel */
"64 64 203 2 ",
"   c #1A1564",
".  c #181B6C",
"X  c #181E71",
"o  c #172175",
"O  c #16257A",
"+  c #15297E",
"@  c #1D2879",
"#  c #252572",
"$  c #2C2872",
"%  c #242A79",
"&  c #31367F",
"*  c #433C7D",
"=  c #142D84",
"-  c #13338C",
";  c #193288",
":  c #19398F",
">  c #123790",
",  c #123A94",
"<  c #1C3D92",
"1  c #113D99",
"2  c #263988",
"3  c #383C83",
"4  c #213F93",
"5  c #0F429F",
"6  c #10409C",
"7  c #1A459D",
"8  c #33438E",
"9  c #2A4494",
"0  c #384992",
"q  c #38539E",
"w  c #0F46A4",
"e  c #0F48A6",
"r  c #0D4BAB",
"t  c #114DAA",
"y  c #1751AD",
"u  c #0C4FB0",
"i  c #0C53B5",
"p  c #0B56B9",
"a  c #0A59BD",
"s  c #1659B6",
"d  c #234DA2",
"f  c #2556AA",
"g  c #2B59AA",
"h  c #355AA7",
"j  c #2D5FB2",
"k  c #1E60BB",
"l  c #2163BC",
"z  c #2867BD",
"x  c #3863B0",
"c  c #484180",
"v  c #584F89",
"b  c #5C5C95",
"n  c #675F94",
"m  c #67659B",
"M  c #726A9B",
"N  c #4865AA",
"B  c #5768A6",
"V  c #486EB5",
"C  c #4A74BA",
"Z  c #5273B5",
"A  c #5E7CBA",
"S  c #6F6DA0",
"D  c #6577B0",
"F  c #707DB1",
"G  c #0A5DC2",
"H  c #0960C5",
"J  c #0766CE",
"K  c #0862C9",
"L  c #1968C6",
"P  c #126ACC",
"I  c #1F71CD",
"U  c #066BD4",
"Y  c #0B6ED5",
"T  c #056FD9",
"R  c #126ED3",
"E  c #0572DC",
"W  c #0C74DB",
"Q  c #1376DA",
"!  c #286AC1",
"~  c #306DC0",
"^  c #2B72C8",
"/  c #2A74CC",
"(  c #3D75C4",
")  c #3D7CCB",
"_  c #297CD6",
"`  c #337ED3",
"'  c #0475E1",
"]  c #0379E6",
"[  c #0A7CE6",
"{  c #027EEC",
"}  c #497EC8",
"|  c #837DA8",
" . c #6D82BA",
".. c #7582B5",
"X. c #7C8CBC",
"o. c #2F83DB",
"O. c #398BDF",
"+. c #1D88E9",
"@. c #0182F2",
"#. c #0688F6",
"$. c #118DF7",
"%. c #1B8CF1",
"&. c #228DED",
"*. c #2295F7",
"=. c #2F99F5",
"-. c #339AF4",
";. c #339EF8",
":. c #4982CD",
">. c #5885C7",
",. c #478AD6",
"<. c #548ED4",
"1. c #4790DE",
"2. c #5794D9",
"3. c #6389C6",
"4. c #6A8CC6",
"5. c #6C8EC9",
"6. c #768FC4",
"7. c #6D92CC",
"8. c #7694CA",
"9. c #7A9ACE",
"0. c #6394D4",
"q. c #6E9AD5",
"w. c #639DDD",
"e. c #759AD1",
"r. c #789CD1",
"t. c #72A4DD",
"y. c #7BA6DC",
"u. c #4EA4F0",
"i. c #58A9F1",
"p. c #5AB1F9",
"a. c #6DA8E5",
"s. c #79ADE5",
"d. c #75B3EE",
"f. c #78BDF9",
"g. c #838EBC",
"h. c #8892BF",
"j. c #A5A0BF",
"k. c #8799C6",
"l. c #969FC5",
"z. c #8DA1CC",
"x. c #99A5CA",
"c. c #89A8D7",
"v. c #94ABD5",
"b. c #9CACD2",
"n. c #8DB0DE",
"m. c #9BB3DB",
"M. c #A5A3C2",
"N. c #A4ACCD",
"B. c #A6B2D4",
"V. c #A6B6D8",
"C. c #ADBDDC",
"Z. c #B7B9D3",
"A. c #86AFE1",
"S. c #86B6E9",
"D. c #94BBE8",
"F. c #87BDF1",
"G. c #A2BEE3",
"H. c #BAC1DB",
"J. c #86C3F8",
"K. c #95C8F6",
"L. c #ADC3E4",
"P. c #A7C7EB",
"I. c #B4C7E4",
"U. c #BCCBE4",
"Y. c #B9CDE9",
"T. c #B4D0EF",
"R. c #BDD2ED",
"E. c #A9CEF3",
"W. c #ADD8FC",
"Q. c #BFD7F1",
"!. c #B8D6F4",
"~. c #B3D9FA",
"^. c #C6C6DB",
"/. c #CACDE0",
"(. c #C3D4ED",
"). c #CAD5E9",
"_. c #D4D4E4",
"`. c #D7D8E6",
"'. c #D0D7E9",
"]. c #D4DCEC",
"[. c #DBDDEA",
"{. c #C3DDF6",
"}. c #CBDCF2",
"|. c #D1DFF1",
" X c #DCE1EF",
".X c #CDE1F6",
"XX c #C8E2FA",
"oX c #D5E2F4",
"OX c #DAE4F2",
"+X c #DDE9F7",
"@X c #D8EAFB",
"#X c #E4E5EF",
"$X c #E1E7F3",
"%X c #E5EBF5",
"&X c #ECEDF4",
"*X c #E7EEF8",
"=X c #EEF1F7",
"-X c #E7F0FB",
";X c #ECF3FB",
":X c #F0F0F6",
">X c #F3F5FA",
",X c #F6F9FD",
"<X c #FFFFFF",
/* pixels */
"<X<X<X<X<X<X<X<X<X<X<X<X<X<X<X<X<X<X<X<X<X<X<X<X-XW.J.p.;.*.$.#.#.$.*.;.p.J.W.;X<X<X<X<X<X<X<X<X<X<X<X<X<X<X<X<X<X<X<X<X<X<X<X<X",
"<X<X<X<X<X<X<X<X<X<X<X<X<X<X<X<X<X<X<X<X<XXXf.=.@.@.@.#.@.@.@.@.@.@.@.@.#.@.@.#.-.f.@X<X<X<X<X<X<X<X<X<X<X<X<X<X<X<X<X<X<X<X<X<X",
"<X<X<X<X<X<X<X<X<X<X<X<X<X<X<X<X<X<X,XK.-.@.@.@.@.@.@.@.@.@.@.@.@.@.@.@.@.@.@.@.@.@.@.-.K.<X<X<X<X<X<X<X<X<X<X<X<X<X<X<X<X<X<X<X",
"<X<X<X<X<X<X<X<X<X<X<X<X<X<X<X<X,XJ.%.{ { @.{ { { @.{ { @.{ { { { @.{ { { @.{ { @.{ { { @.%.K.,X<X<X<X<X<X<X<X<X<X<X<X<X<X<X<X<X",
"<X<X<X<X<X<X<X<X<X<X<X<X<X<X<X~.&.{ { @.{ { { { { { { { { { { { { { { { { { { { { { { { { { { &.~.<X<X<X<X<X<X<X<X<X<X<X<X<X<X<X",
"<X<X<X<X<X<X<X<X<X<X<X<X<X;Xu.{ { { { ] ] { { { { { ] { { { { ] { ] { { { { ] { { ] { { { { { ] { i.;X<X<X<X<X<X<X<X<X<X<X<X<X<X",
"<X<X<X<X<X<X<X<X<X<X<X<X{.+.] ] ] ] ] ] ] ] ] ] ] ] ] ] ] ] ] ] ] ] ] ] ] ] ] ] ] ] ] ] ] ] ] ] ] ] &.XX<X<X<X<X<X<X<X<X<X<X<X<X",
"<X<X<X<X<X<X<X<X<X<X<XK.] ] ] ] ] ] ] ] ] ] ] ] ] ] ] ] ] ] ] ] ] ] ] ] ] ] ] ] ] ] ] ] ] ] ] ] ] ] ' [ E.<X<X<X<X<X<X<X<X<X<X<X",
"<X<X<X<X<X<X<X<X<X<XF.' ' ' ' ' ' ' ' ' ' ] ' ' ' ' ' ' ' ' ' ' ] ' ] ' ' ] ' ' ' ' ' ' ' ' ' ' ' ' ' ] ' F.<X<X<X<X<X<X<X<X<X<X",
"<X<X<X<X<X<X<X<X<Xd.' ' ' ' ' ' ' E ' ' ' E ' ' ' ' ' ' ' ' ' ' ' E ' ' ' ' ' ' ' ' ' ' ' ' ' ' ' ' ' ' ' ' S.<X<X<X<X<X<X<X<X<X",
"<X<X<X<X<X<X<X<XF.T E E E E E E E E E E E E E E E E E E E ' E E E ' T ' E E E E ' E E E ' E ' E T ' E E ' E E K.<X<X<X<X<X<X<X<X",
"<X<X<X<X<X<X<XE.W W E E E E E E E E E T E E E E E E E E E W E E T E T T T W E T T E E T E T T E T T W E T E W T !.<X<X<X<X<X<X<X",
"<X<X<X<X<X<X@XQ T T T T T T T T T T T T T T T W T T T T T T T E T T E T T T T T T T T T T T T T T T T T T T T T Q +X<X<X<X<X<X<X",
"<X<X<X<X<X,Xo.T U T U T T T T U T U U T U U T Y T T Q 1.S.E.(..X{.!.P.a.O.T T T T U U T T U U T T U U T Y T T T T O.<X<X<X<X<X<X",
"<X<X<X<X<Xs.U U U U U U U U U U U U U U U U U U 1.E.<X<X<X<X<X<X<X<X<X<X<X-XD.o.U T U U U U U U U U U U T J U T T U S.<X<X<X<X<X",
"<X<X<X<XoXY J U U J U J U J U J U J U U J U 1..X<X<X<X<X<X<X<X<X<X<X<X<X<X<X<X<XP._ J U J U U J J U J U U J J J J U R +X<X<X<X<X",
"<X<X<X<X1.J J U J J J J J J J J J J J J R P.<X<X<X<X<X<X<X<X<X<X<X<X<X<X<X<X<X<X<X,Xa.J J J J J J J J J J J J J J J J 2.<X<X<X<X",
"<X<X<X(.J K K J J J J J J J J J J J J _ oX<X<X<X<X<X<X<X<X<X<X<X<X<X<X<X<X<X<X<X<X<X<XE.P J J J J J J J J J J J J J J J .X<X<X<X",
"<X<X<X,.K K K K K K K J K K K K K J ` -X<X<X<X<X<X<X<X,XT.s.w.1.2.w.A..X<X<X<X<X<X<X<X<XQ.P K K J K J K K K K K K K K K 2.<X<X<X",
"<X<X.XK K K K K K K K K K K K K K / *X<X<X<X<X<X<X+Xw.P H H H K K K K K I A.;X<X<X<X<X<X<X(.H K G K J G K K K K K K K K K +X<X<X",
"<X<Xt.H G K H H H H H H H H H H P oX<X<X<X<X<X,Xt.P G K G H K K G H H H K G I P.<X<X<X<X<X<XD.K G K G K K G K G H H K K K c.<X<X",
"<X<XL G G G G G G G G G G G G G D.<X<X<X<X<X&XO.G G G G G G G G G H G G G G G G t.,X<X<X<X<X<X<.G G G G G G G G G G G G G / <X<X",
"<XT.G G G G G G G G G G G G G :.<X<X<X<X<X-X^ a G G G G G G G a G G G G G G G G q.,X<X<X<X<X<X+XH G G G G G G G a G G G G G (.<X",
"<Xy.a a a a G a a a a a a G a R.<X<X<X<X,X:.a a a a a a :.P.oX;XOXP.<.a a a :.oX<X<X+X<X<X<X<X<X0.G a a a G a a a a a a a a A.<X",
"<X) a a a a a p a a a p p p ) <X<X<X<X<Xc.a a a a a L R.<X<X<X<X<X<X<X}.} P.<X<X*X0.^ ,X<X<X+X2.a a p a a a a a a a a a a a :.<X",
">Xp p p p p p p p p p p p p G.<X<X<X<X%Xa p p p p k +X<X<X<X<X<X<X<X<X<X<X<X,Xn.! n.,X<X,Xc.s p p p p a p p i p p p p p i p s <X",
"}.i p p p i p i p p p i p p ;X<X<X<X<Xq.p i i i i (.<X<X<X<X<XY.,X<X<X<X<XL.! 0.%X<X<XL.! i p p i i p i i p i i i p i i i p p +X",
"L.i i i i i i i i i i i p ( <X<X<X<X<Xs i i i i >.<X<X<X<X(.~ i ~ Y.<XoX:.} }.<X<X|.} i i i i i i i i i i i i i p p i i i i i Y.",
"c.i i i i u i u i u i u i e.<X<X<X<X(.i r i i i P.<X<X<X>.i i i r i ( z C.<X<X;Xq.i i u u i u i i l s i i i i i u i u i i i i n.",
"e.r r i i r u i u u u i u m.<X<X<X<Xn.r u u u u %X<X<X<Xy u i r i i r -X<X<X<Xs r i r i r i r u r.;X>.u r i r i u u u i u u r c.",
"7.u r u r r r u r r u r r L.<X<X<X<Xe.r r r r i <X<X<X<Xu r r i r r r ;X<X<X<Xy i r r r r u >.oX<X<X>.r u r r u r r u r r u r e.",
">.t r r r r r r r r r r r Y.<X<X<X<X>.r r r r r -X<X<X<Xy r r r r r r =X<X<X<Xy r r r r r r.<X<X<X<Xe.r r r r r r r r r r r r 7.",
">.r e r e r r e e r e e r U.<X<X<X<X>.r e r y c.,X<X>Xc.e r r e r r y >X<X<XOXe e r e r r V.<X<X<X<X9.r e r e e r e e e r e r 7.",
"7.e w w w w w e e e e e e L.<X<X<X<X5.r e 3.&X<X<XL.j 4.OX8.e r e 4.%X<X<X<Xc.e e e e w e Y.<X<X<X<X4.e e w e e w w w e w e e r.",
"9.w w w w w w e e w w w w v.<X<X<X<Xv.x ).<X<X].C C ].<X<X<X].4.).<X<X<X<X;Xf w w w w w e ].<X<X<X<XC w w w w w e w w w w w w z.",
"v.6 5 w w w 5 w 5 w w 5 5 5.<X<X<X<X<X<X<X=X7.g C.<X<X<X<X<X<X<X<X<X<X<X<XA 5 w 5 w 5 w f <X<X<X<X<Xg w w 5 w w w w w 5 w w w m.",
"I.5 5 5 5 5 5 5 5 w 5 5 5 x <X<X<X<X<X,Xv.g k.>X<X,XV.>X<X<X<X<X<X<X<X,X3.5 5 5 w 5 5 5 5.<X<X<X<X$X5 5 5 5 5 5 5 5 5 5 1 w 1 (.",
" X1 5 5 1 5 5 1 1 1 5 1 1 5 $X<X<X<X<X9.A $X<X<XI.h 1 g B.>X<X<X<X>XV.g 1 6 1 6 1 5 1 5 '.<X<X<X<XV.6 6 6 6 1 5 5 6 1 5 1 5 1 %X",
",X7 1 1 1 1 1 1 1 1 1 1 1 1 v.<X<X<X<X,X<X<XOXZ 1 1 1 5 1 6 h V h 7 1 1 1 1 1 5 1 1 1 A <X<X<X<X<XV 1 1 1 1 1 1 1 1 1 1 1 1 d <X",
"<XZ 1 1 1 1 1 1 1 1 1 1 1 > h ,X<X<X<X<X,Xk.6 1 1 1 , 1 1 1 , 1 1 1 1 1 1 1 , 1 , 1 7  X<X<X<X<X X1 1 1 1 1 1 1 1 1 1 1 1 1 A <X",
"<Xz.1 > 1 1 > 1 1 > 1 1 , 1 1 C.<X<X<X<X<XA , , 1 > 1 1 1 > 1 1 , , , , , , 1 , , 1 C.<X<X<X<X<X ., 1 , , , 1 , , , , , , , b.<X",
"<X'.1 > > > > > > 1 > > > > > h ,X<X<X<X<X>XV , > 1 > > 1 > > > , , , , , , > , , k.<X<X<X<X<X'.1 , > , , , > > , > , , , , OX<X",
"<X<Xh - > > > > > > > > > > > > h.<X<X<X<X<X,XD > > > > > > > > > > > > > > > < B.<X<X<X<X<X,XN > > > > > > > > > > > > - N <X<X",
"<X<Xl.- - > - > - - - - - > - > > H.<X<X<X<X<X<XV.9 - - - > - > > - > - - - N '.<X<X<X<X<X<X6.- - - - > - > - - - > - > - b.<X<X",
"<X<X%X: - - - - - - - - - - - - - 4 ].<X<X<X<X<X<X:Xx.q - - - - - - - : B H.<X<X<X<X<X<X<XN.- - - - - - - - - - - - - - < =X<X<X",
"<X<X<X..- - - = = - - - - = - - = - 9 '.<X<X<X<X<X<X<X<X#XB.k.X.k.b.H.:X<X<X<X<X<X<X<X,XB.- = - - - = - = - - - = - - - X.<X<X<X",
"<X<X<X X- - = = = - = = = - = = = - = 9 H.<X<X<X<X<X<X<X<X<X<X<X<X<X<X<X<X<X<X<X<X<X<Xk.= = - = = = = - - = = = = - = ; %X<X<X<X",
"<X<X<X<XF = = = = = = = = = = = = = = = = g.>X<X<X<X<X<X<X<X<X<X<X<X<X<X<X<X<X<X<X#XB = = = = = = = = = = = = = = = = g.<X<X<X<X",
"<X<X<X<X&X2 = = = = = = = = + = + = + = = = 0 B.,X<X<X<X<X<X<X<X<X<X<X<X<X<X<X=Xh.; = = = = + = = = + = = = + = = = 9 >X<X<X<X<X",
"<X<X<X<X<XN.+ + + + + + + + + + + + + + + + + + 8 h.[.<X<X<X<X<X<X<X<X<X,X^.F 2 + + + + + + + + = + + + + + + + + O Z.<X<X<X<X<X",
"<X<X<X<X<X<XD + O + + + O = O + + + + + + + + + + + O 8 B g.x.N.x.l...B 2 O + O O + + + + O + + + + + + + + + O + F <X<X<X<X<X<X",
"<X<X<X<X<X<X:X8 O + O O O O O O O O O O + O O O O O O O O O O O O O + O O O O O + O O O + O O O O O O O + O O O c ,X<X<X<X<X<X<X",
"<X<X<X<X<X<X<X_.% O O O O O O O O O O O O O O O O O O O O o O O O O O O O O O O O O O O O O o O O O O O O O O 2 [.<X<X<X<X<X<X<X",
"<X<X<X<X<X<X<X<X/.@ o o o o o o o o o o o o o o o o o o O o o o o o o o o o o o O o o o o o o O o o o o o o @ /.<X<X<X<X<X<X<X<X",
"<X<X<X<X<X<X<X<X<XZ.@ X o o o o o o o o o o o o o o o X o X o o o o o o o o o o o o X o o X X o X o o X o % H.<X<X<X<X<X<X<X<X<X",
"<X<X<X<X<X<X<X<X<X<X^.% . X X X X X . X X . X X X X X X X X X X . X X . . o . X X . o . X X X X X X X X % ^.<X<X<X<X<X<X<X<X<X<X",
"<X<X<X<X<X<X<X<X<X<X<X/.& X . X . . X . X . . . X . X . . .     . o . . o . . o X . X . X X . X X X . 3 `.<X<X<X<X<X<X<X<X<X<X<X",
"<X<X<X<X<X<X<X<X<X<X<X<X&Xb . . . . . . . . . . . . . . . .     . . . . . . . . . . . . . . . . . . m :X<X<X<X<X<X<X<X<X<X<X<X<X",
"<X<X<X<X<X<X<X<X<X<X<X<X<X<Xj.o   .     . . . . . . .   . .     . . . . . .   . .   .     . . . # M.<X<X<X<X<X<X<X<X<X<X<X<X<X<X",
"<X<X<X<X<X<X<X<X<X<X<X<X<X<X<X#Xm .     .           .                       .   .       .     S %X<X<X<X<X<X<X<X<X<X<X<X<X<X<X<X",
"<X<X<X<X<X<X<X<X<X<X<X<X<X<X<X<X<X_.M                                                     b _.<X<X<X<X<X<X<X<X<X<X<X<X<X<X<X<X<X",
"<X<X<X<X<X<X<X<X<X<X<X<X<X<X<X<X<X<X<X_.| $                                         $ | [.<X<X<X<X<X<X<X<X<X<X<X<X<X<X<X<X<X<X<X",
"<X<X<X<X<X<X<X<X<X<X<X<X<X<X<X<X<X<X<X<X>X>XZ.| *                             * | ^.<X<X<X<X<X<X<X<X<X<X<X<X<X<X<X<X<X<X<X<X<X<X",
"<X<X<X<X<X<X<X<X<X<X<X<X<X<X<X<X<X<X<X<X<X<X<X<X<X&X^.j.| | v v v n M | j.^.:X<X<X<X<X<X<X<X<X<X<X<X<X<X<X<X<X<X<X<X<X<X<X<X<X<X"
};
